<svg width="16" height="16" viewBox="0 0 16 16" fill="none" xmlns="http://www.w3.org/2000/svg">
<path fill-rule="evenodd" clip-rule="evenodd" d="M1.07072 4.05383C1.40914 3.90879 1.80106 4.06556 1.9461 4.40398L1.33333 4.66659C1.9461 4.40398 1.94619 4.4042 1.9461 4.40398L1.94575 4.40318C1.94557 4.40275 1.9457 4.40306 1.94575 4.40318L1.94836 4.40909C1.95104 4.4151 1.95563 4.42531 1.96216 4.43945C1.97522 4.46773 1.99601 4.51165 2.02467 4.56897C2.08205 4.68372 2.17066 4.85156 2.29161 5.05477C2.53428 5.46245 2.90296 6.00542 3.4052 6.54629C3.52358 6.67378 3.64886 6.80065 3.78118 6.92529C3.78672 6.93032 3.79219 6.93546 3.79759 6.9407C4.78738 7.86753 6.16821 8.66659 8 8.66659C8.80598 8.66659 9.51892 8.51272 10.1473 8.26539C10.9646 7.94367 11.6497 7.45934 12.2104 6.93306C12.8435 6.33885 13.3085 5.69995 13.6155 5.20726C13.7684 4.96187 13.8805 4.75538 13.9533 4.61265C13.9896 4.54136 14.0161 4.48621 14.0328 4.45033C14.0412 4.4324 14.0471 4.41931 14.0506 4.41144L14.0539 4.40398C14.199 4.06575 14.5909 3.90883 14.9293 4.05383C15.2677 4.19887 15.4245 4.59079 15.2794 4.92921L14.6667 4.66659C15.2794 4.92921 15.2795 4.92905 15.2794 4.92921L15.278 4.93255L15.2756 4.93804L15.268 4.95526C15.2616 4.96948 15.2527 4.98911 15.2412 5.01373C15.2183 5.06297 15.185 5.13229 15.1411 5.21842C15.0533 5.39052 14.9227 5.63064 14.7471 5.91238C14.4787 6.34315 14.1014 6.87739 13.6064 7.41612L14.1381 7.94775C14.3984 8.2081 14.3984 8.63021 14.1381 8.89056C13.8777 9.15091 13.4556 9.15091 13.1953 8.89056L12.6351 8.33044C12.259 8.63426 11.838 8.92084 11.3705 9.16806L11.8921 9.96967C12.0929 10.2783 12.0055 10.6912 11.6969 10.8921C11.3883 11.0929 10.9753 11.0055 10.7745 10.6969L10.1176 9.68717C9.66492 9.82593 9.18134 9.92428 8.66667 9.97037V10.9999C8.66667 11.3681 8.36819 11.6666 8 11.6666C7.63181 11.6666 7.33333 11.3681 7.33333 10.9999V9.97047C6.81691 9.92433 6.33346 9.8258 5.88226 9.68744L5.22546 10.6969C5.02465 11.0055 4.61169 11.0929 4.30308 10.8921C3.99447 10.6912 3.90707 10.2783 4.10788 9.96967L4.62948 9.16804C4.16273 8.92101 3.74167 8.63445 3.36501 8.33029L2.80474 8.89056C2.54439 9.15091 2.12228 9.15091 1.86193 8.89056C1.60158 8.63021 1.60158 8.2081 1.86193 7.94775L2.39356 7.41612C1.83023 6.80295 1.41851 6.19475 1.14589 5.73675C1.00643 5.50246 0.902331 5.30572 0.832102 5.16526C0.796962 5.09498 0.770225 5.03864 0.751713 4.99856C0.742454 4.97851 0.735245 4.96252 0.730064 4.95087L0.723808 4.93668L0.721813 4.93209L0.721098 4.93043L0.720811 4.92977C0.720687 4.92948 0.720571 4.92921 1.33333 4.66659L0.720811 4.92977C0.575774 4.59135 0.732302 4.19887 1.07072 4.05383Z" fill="#344054"/>
</svg>
