<svg xmlns="http://www.w3.org/2000/svg" width="16" height="16" viewBox="0 0 16 16" fill="none">
<path d="M2.18294 10.1972C1.61632 9.46106 1.33301 9.093 1.33301 8.00008C1.33301 6.90716 1.61632 6.5391 2.18294 5.80297C3.31432 4.33312 5.21175 2.66675 7.99967 2.66675C10.7876 2.66675 12.685 4.33312 13.8164 5.80297C14.383 6.5391 14.6663 6.90716 14.6663 8.00008C14.6663 9.093 14.383 9.46106 13.8164 10.1972C12.685 11.667 10.7876 13.3334 7.99967 13.3334C5.21175 13.3334 3.31432 11.667 2.18294 10.1972Z" stroke="#344054"/>
<path d="M10 8C10 9.10457 9.10457 10 8 10C6.89543 10 6 9.10457 6 8C6 6.89543 6.89543 6 8 6C9.10457 6 10 6.89543 10 8Z" stroke="#344054"/>
</svg>